name C:\Users\antoi\Documents\MyRepositories\upper-imu-dc\Results\main_tracking\Case_76\FLX01_orientations_groundFrame.mot
datacolumns 13
datarows 40
range 3.51000000 3.90000000
endheader 
time	radius_imu_[0][0]	radius_imu_[0][1]	radius_imu_[0][2]	radius_imu_[1][0]	radius_imu_[1][1]	radius_imu_[1][2]	radius_imu_[2][0]	radius_imu_[2][1]	radius_imu_[2][2]	radius_imu_x	radius_imu_y	radius_imu_z	
          3.51000000	          0.95352917	         -0.12554262	         -0.27389994	         -0.05109624	         -0.96326840	          0.26363453	         -0.29693652	         -0.23738796	         -0.92491927	         -2.86392096	         -0.27744571	          0.13090806	
          3.52000000	          0.95368004	         -0.12628381	         -0.27303258	         -0.05200366	         -0.96316340	          0.26384063	         -0.29629379	         -0.23742085	         -0.92511693	         -2.86377125	         -0.27654398	          0.13165147	
          3.53000000	          0.95382867	         -0.12701657	         -0.27217212	         -0.05288828	         -0.96304812	          0.26408551	         -0.29565808	         -0.23749761	         -0.92530059	         -2.86357887	         -0.27564965	          0.13238611	
          3.54000000	          0.95397594	         -0.12773620	         -0.27131785	         -0.05374556	         -0.96292277	          0.26436935	         -0.29502767	         -0.23761987	         -0.92547040	         -2.86334371	         -0.27476198	          0.13310704	
          3.55000000	          0.95412268	         -0.12843870	         -0.27046888	         -0.05457206	         -0.96278781	          0.26469137	         -0.29440075	         -0.23778800	         -0.92562685	         -2.86306672	         -0.27388003	          0.13381006	
          3.56000000	          0.95426965	         -0.12912088	         -0.26962423	         -0.05536543	         -0.96264387	          0.26504989	         -0.29377559	         -0.23800120	         -0.92577067	         -2.86274983	         -0.27300279	          0.13449178	
          3.57000000	          0.95441743	         -0.12978042	         -0.26878321	         -0.05612438	         -0.96249173	          0.26544251	         -0.29315086	         -0.23825766	         -0.92590273	         -2.86239569	         -0.27212953	          0.13514976	
          3.58000000	          0.95456626	         -0.13041597	         -0.26794578	         -0.05684857	         -0.96233223	          0.26586636	         -0.29252607	         -0.23855472	         -0.92602383	         -2.86200743	         -0.27126021	          0.13578260	
          3.59000000	          0.95471594	         -0.13102725	         -0.26711298	         -0.05753848	         -0.96216623	          0.26631837	         -0.29190205	         -0.23888911	         -0.92613454	         -2.86158829	         -0.27039590	          0.13639007	
          3.60000000	          0.95486571	         -0.13161513	         -0.26628732	         -0.05819536	         -0.96199450	          0.26679556	         -0.29128127	         -0.23925725	         -0.92623496	         -2.86114129	         -0.26953921	          0.13697318	
          3.61000000	          0.95501418	         -0.13218171	         -0.26547299	         -0.05882113	         -0.96181769	          0.26729534	         -0.29066818	         -0.23965542	         -0.92632461	         -2.86066890	         -0.26869449	          0.13753431	
          3.62000000	          0.95515927	         -0.13273040	         -0.26467604	         -0.05941832	         -0.96163622	          0.26781570	         -0.29006935	         -0.24008005	         -0.92640237	         -2.86017281	         -0.26786796	          0.13807729	
          3.63000000	          0.95529825	         -0.13326595	         -0.26390424	         -0.05999011	         -0.96145023	          0.26835543	         -0.28949344	         -0.24052783	         -0.92646636	         -2.85965368	         -0.26706771	          0.13860742	
          3.64000000	          0.95542774	         -0.13379450	         -0.26316699	         -0.06054032	         -0.96125960	          0.26891420	         -0.28895103	         -0.24099588	         -0.92651405	         -2.85911111	         -0.26630344	          0.13913147	
          3.65000000	          0.95554388	         -0.13432354	         -0.26247491	         -0.06107355	         -0.96106386	          0.26949262	         -0.28845435	         -0.24148175	         -0.92654231	         -2.85854359	         -0.26558614	          0.13965775	
          3.66000000	          0.95564236	         -0.13486196	         -0.26183951	         -0.06159516	         -0.96086223	          0.27009221	         -0.28801686	         -0.24198351	         -0.92654750	         -2.85794855	         -0.26492772	          0.14019599	
          3.67000000	          0.95571859	         -0.13541992	         -0.26127270	         -0.06211149	         -0.96065361	          0.27071534	         -0.28765282	         -0.24249964	         -0.92652565	         -2.85732246	         -0.26434047	          0.14075733	
          3.68000000	          0.95576777	         -0.13600885	         -0.26078641	         -0.06262981	         -0.96043662	          0.27136508	         -0.28737687	         -0.24302900	         -0.92647258	         -2.85666103	         -0.26383672	          0.14135419	
          3.69000000	          0.95578507	         -0.13664133	         -0.26039211	         -0.06315847	         -0.96020960	          0.27204508	         -0.28720361	         -0.24357066	         -0.92638406	         -2.85595935	         -0.26342830	          0.14200020	
          3.70000000	          0.95576566	         -0.13733100	         -0.26010036	         -0.06370696	         -0.95997070	          0.27275939	         -0.28714705	         -0.24412385	         -0.92625597	         -2.85521218	         -0.26312614	          0.14271012	
          3.71000000	          0.95570486	         -0.13809241	         -0.25992059	         -0.06428584	         -0.95971786	          0.27351225	         -0.28722040	         -0.24468778	         -0.92608441	         -2.85441408	         -0.26293997	          0.14349957	
          3.72000000	          0.95559814	         -0.13894075	         -0.25986086	         -0.06490662	         -0.95944894	          0.27430798	         -0.28743578	         -0.24526150	         -0.92586579	         -2.85355967	         -0.26287811	          0.14438487	
          3.73000000	          0.95544125	         -0.13989162	         -0.25992759	         -0.06558163	         -0.95916166	          0.27515079	         -0.28780387	         -0.24584394	         -0.92559694	         -2.85264372	         -0.26294722	          0.14538271	
          3.74000000	          0.95523029	         -0.14096091	         -0.26012520	         -0.06632399	         -0.95885370	          0.27604478	         -0.28833353	         -0.24643379	         -0.92527518	         -2.85166130	         -0.26315187	          0.14651009	
          3.75000000	          0.95496172	         -0.14216474	         -0.26045595	         -0.06714763	         -0.95852261	          0.27699386	         -0.28903168	         -0.24702953	         -0.92489843	         -2.85060775	         -0.26349443	          0.14778421	
          3.76000000	          0.95463239	         -0.14351909	         -0.26092006	         -0.06806695	         -0.95816596	          0.27800157	         -0.28990325	         -0.24762927	         -0.92446517	         -2.84947900	         -0.26397515	          0.14922210	
          3.77000000	          0.95423950	         -0.14503940	         -0.26151587	         -0.06909647	         -0.95778136	          0.27907086	         -0.29095130	         -0.24823061	         -0.92397452	         -2.84827171	         -0.26459240	          0.15084024	
          3.78000000	          0.95378055	         -0.14674062	         -0.26224008	         -0.07025076	         -0.95736645	          0.28020406	         -0.29217718	         -0.24883061	         -0.92342613	         -2.84698326	         -0.26534280	          0.15265461	
          3.79000000	          0.95325325	         -0.14863708	         -0.26308793	         -0.07154438	         -0.95691890	          0.28140296	         -0.29358073	         -0.24942582	         -0.92282020	         -2.84561175	         -0.26622150	          0.15468057	
          3.80000000	          0.95265548	         -0.15074240	         -0.26405352	         -0.07299158	         -0.95643640	          0.28266879	         -0.29516057	         -0.25001229	         -0.92215730	         -2.84415594	         -0.26722248	          0.15693278	
          3.81000000	          0.95198516	         -0.15306932	         -0.26513021	         -0.07460616	         -0.95591667	          0.28400220	         -0.29691441	         -0.25058553	         -0.92143840	         -2.84261525	         -0.26833897	          0.15942507	
          3.82000000	          0.95124018	         -0.15562970	         -0.26631093	         -0.07640129	         -0.95535743	          0.28540326	         -0.29883935	         -0.25114055	         -0.92066469	         -2.84098975	         -0.26956372	          0.16217038	
          3.83000000	          0.95041830	         -0.15843447	         -0.26758844	         -0.07838950	         -0.95475641	          0.28687153	         -0.30093212	         -0.25167183	         -0.91983757	         -2.83928006	         -0.27088933	          0.16518084	
          3.84000000	          0.94951707	         -0.16149370	         -0.26895563	         -0.08058255	         -0.95411129	          0.28840613	         -0.30318937	         -0.25217341	         -0.91895853	         -2.83748728	         -0.27230854	          0.16846774	
          3.85000000	          0.94853373	         -0.16481658	         -0.27040574	         -0.08299140	         -0.95341967	          0.29000579	         -0.30560792	         -0.25263892	         -0.91802907	         -2.83561288	         -0.27381445	          0.17204161	
          3.86000000	          0.94746513	         -0.16841151	         -0.27193269	         -0.08562614	         -0.95267904	          0.29166900	         -0.30818499	         -0.25306167	         -0.91705060	         -2.83365853	         -0.27540084	          0.17591227	
          3.87000000	          0.94630766	         -0.17228609	         -0.27353120	         -0.08849594	         -0.95188672	          0.29339417	         -0.31091845	         -0.25343475	         -0.91602432	         -2.83162594	         -0.27706233	          0.18008892	
          3.88000000	          0.94505714	         -0.17644722	         -0.27519697	         -0.09160903	         -0.95103982	          0.29517970	         -0.31380691	         -0.25375116	         -0.91495113	         -2.82951670	         -0.27879458	          0.18458017	
          3.89000000	          0.94370885	         -0.18090109	         -0.27692672	         -0.09497265	         -0.95013515	          0.29702424	         -0.31684982	         -0.25400394	         -0.91383160	         -2.82733208	         -0.28059426	          0.18939413	
          3.90000000	          0.94225744	         -0.18565326	         -0.27871811	         -0.09859307	         -0.94916921	          0.29892678	         -0.32004738	         -0.25418631	         -0.91266587	         -2.82507285	         -0.28245907	          0.19453845	
